<?xml version="1.0" encoding="UTF-8"?>
<svg version="1.1" xmlns="http://www.w3.org/2000/svg" width="344" height="344">
<path d="M0 0 C113.52 0 227.04 0 344 0 C344 113.52 344 227.04 344 344 C230.48 344 116.96 344 0 344 C0 230.48 0 116.96 0 0 Z " fill="#101010" transform="translate(0,0)"/>
<path d="M0 0 C1.04225739 -0.03750366 2.08451477 -0.07500732 3.15835571 -0.11364746 C4.88939041 -0.16716873 4.88939041 -0.16716873 6.65539551 -0.22177124 C8.46806412 -0.28222626 8.46806412 -0.28222626 10.31735229 -0.34390259 C21.55695881 -0.69971517 32.79898239 -0.91860497 44.04280853 -1.08895302 C51.58899591 -1.20607594 59.12808314 -1.36998425 66.67004395 -1.6524353 C122.75099304 -3.70745848 122.75099304 -3.70745848 136.50001526 7.84638977 C145.75293929 16.73377179 149.96962727 27.18328756 150.84875488 39.97988892 C150.88156579 44.96057656 150.58317558 49.88340906 150.25109863 54.85098267 C150.17365214 57.43464306 150.10783824 60.01867914 150.05383301 62.60293579 C149.89872588 68.84213466 149.60293557 75.06139217 149.18859863 81.28848267 C149.58836914 80.66272339 149.98813965 80.03696411 150.40002441 79.39224243 C150.93095703 78.57554077 151.46188965 77.75883911 152.00891113 76.91738892 C152.53243164 76.10600464 153.05595215 75.29462036 153.59533691 74.45864868 C155.79175424 71.46693038 157.64264117 70.35226991 161.18859863 69.28848267 C166.54632044 68.51074886 169.14510702 68.87669972 173.56359863 72.03848267 C176.30145154 74.19822321 178.06702585 75.95775137 179.18859863 79.28848267 C179.69529887 85.23617835 179.09676558 88.46406147 175.93859863 93.66348267 C175.58652344 94.24944214 175.23444824 94.83540161 174.8717041 95.43911743 C170.94799243 101.87564573 166.73507919 108.13783014 162.50891113 114.37832642 C162.01294434 115.14684937 161.51697754 115.91537231 161.00598145 116.70718384 C159.18859863 119.28848267 159.18859863 119.28848267 156.61340332 122.12954712 C146.49164453 133.93447276 147.87743675 147.75183183 148.15496826 162.55203247 C148.23325433 167.32165717 148.23032584 172.09210348 148.23791504 176.86225891 C148.24657313 179.39199447 148.27050483 181.9217329 148.31115723 184.45115662 C148.32356445 185.58381454 148.33597168 186.71647247 148.34875488 187.88345337 C148.37401245 189.38111992 148.37401245 189.38111992 148.39978027 190.90904236 C148.18859863 193.28848267 148.18859863 193.28848267 146.18859863 195.28848267 C144.34953117 195.53457832 144.34953117 195.53457832 142.07577515 195.5289917 C141.2147821 195.53174103 140.35378906 195.53449036 139.46670532 195.537323 C138.52012054 195.53013245 137.57353577 195.52294189 136.5982666 195.51553345 C135.10553223 195.51597153 135.10553223 195.51597153 133.5826416 195.51641846 C130.28193547 195.51502127 126.981453 195.49944171 123.68078613 195.48379517 C121.39678063 195.48006642 119.11277354 195.4772188 116.82876587 195.47521973 C110.80844734 195.46757237 104.78822484 195.4479144 98.76794434 195.42581177 C92.62822774 195.40537707 86.48849566 195.3962231 80.34875488 195.38613892 C68.29532042 195.36466955 56.24198252 195.32947843 44.18859863 195.28848267 C44.18859863 201.55848267 44.18859863 207.82848267 44.18859863 214.28848267 C-2.01140137 214.28848267 -48.21140137 214.28848267 -95.81140137 214.28848267 C-95.81140137 182.27848267 -95.81140137 150.26848267 -95.81140137 117.28848267 C-66.11140137 117.28848267 -36.41140137 117.28848267 -5.81140137 117.28848267 C-5.79077637 108.97660767 -5.77015137 100.66473267 -5.74890137 92.10098267 C-5.71917236 89.48394409 -5.68944336 86.86690552 -5.65881348 84.17056274 C-5.67357757 82.09135159 -5.69166316 80.01216022 -5.71374512 77.93301392 C-5.68929321 76.85741211 -5.66484131 75.7818103 -5.63964844 74.6736145 C-5.69634691 71.62009862 -5.82377724 69.1794709 -6.81140137 66.28848267 C-13.3804312 60.19528793 -21.82916962 59.93671103 -30.32702637 60.00723267 C-34.98086695 60.38287899 -38.04930436 61.60127052 -41.81140137 64.28848267 C-42.86327637 65.03098267 -43.91515137 65.77348267 -44.99890137 66.53848267 C-50.45566815 71.87398796 -54.53945611 78.38526842 -55.07702637 86.10098267 C-55.08229366 87.49681578 -55.07685256 88.89272514 -55.06140137 90.28848267 C-55.06913574 90.98715454 -55.07687012 91.68582642 -55.08483887 92.40567017 C-55.06932361 96.51721438 -54.48974481 99.55883057 -52.81140137 103.28848267 C-52.81140137 104.27848267 -52.81140137 105.26848267 -52.81140137 106.28848267 C-59.74140137 106.28848267 -66.67140137 106.28848267 -73.81140137 106.28848267 C-75.90233516 101.06114818 -76.16169789 97.70269952 -76.12390137 92.22598267 C-76.11826172 91.3797937 -76.11262207 90.53360474 -76.10681152 89.66177368 C-75.78911704 73.16525194 -69.45586925 61.76923219 -57.81140137 50.28848267 C-47.06850464 40.83935415 -32.93907975 38.18154095 -18.9642334 38.92617798 C-14.39087862 39.69583759 -10.09676674 41.56299621 -5.81140137 43.28848267 C-5.81663818 42.02141479 -5.821875 40.75434692 -5.82727051 39.44888306 C-5.84531651 34.76562196 -5.8568319 30.08236396 -5.86633301 25.39907837 C-5.87137415 23.36879968 -5.87820693 21.33852464 -5.88684082 19.30825806 C-5.89891604 16.3967092 -5.90463171 13.48520817 -5.90905762 10.57363892 C-5.9142189 9.66010147 -5.91938019 8.74656403 -5.92469788 7.80534363 C-5.92489305 5.6327284 -5.87351941 3.46020971 -5.81140137 1.28848267 C-4.17224317 -0.35067553 -2.26431788 0.07845619 0 0 Z " fill="#E8EAE9" transform="translate(131.8114013671875,97.71151733398438)"/>
<path d="M0 0 C38.61 0 77.22 0 117 0 C117.495 12.375 117.495 12.375 118 25 C125.92 25.33 133.84 25.66 142 26 C142.34356253 33.55520436 142.61663093 41.10735933 142.77718258 48.66855717 C142.85438776 52.18302545 142.95833408 55.69173261 143.1315918 59.20288086 C144.0692898 78.73468417 141.46596702 92.09770393 128.82138062 107.74050903 C126.48864334 110.63435711 124.41272534 113.64089941 122.32421875 116.71484375 C121.70490479 117.59688477 121.08559082 118.47892578 120.44750977 119.38769531 C113.58706574 129.32672672 109.7126111 136.79281446 110 149 C109.96326172 150.69382813 109.96326172 150.69382813 109.92578125 152.421875 C109.88396788 154.95640877 109.90342936 157.46770317 110 160 C114.34436149 160.37237384 116.42112092 159.4094885 120 157 C122.03764662 155.76418055 124.07946003 154.53520998 126.125 153.3125 C127.67574219 152.37857422 127.67574219 152.37857422 129.2578125 151.42578125 C132 150 132 150 135 150 C135.2475 149.29875 135.495 148.5975 135.75 147.875 C137.16559954 144.61912106 138.92637798 141.87631441 141 139 C141.33 139 141.66 139 142 139 C142 153.19 142 167.38 142 182 C109.66 182 77.32 182 44 182 C44 171.77 44 161.54 44 151 C60.5 150.67 77 150.34 94 150 C94 148.68 94 147.36 94 146 C69.25 145.505 69.25 145.505 44 145 C44 133.78 44 122.56 44 111 C29.48 111 14.96 111 0 111 C0 96.48 0 81.96 0 67 C5.55441273 72.55441273 6.22647455 77.94297394 6.4375 85.5625 C6.33495773 91.60646185 5.71334654 95.24227474 2 100 C3.05960938 99.96519531 4.11921875 99.93039063 5.2109375 99.89453125 C6.59894252 99.86639601 7.98696463 99.83909557 9.375 99.8125 C10.07367188 99.78736328 10.77234375 99.76222656 11.4921875 99.73632812 C13.5234375 99.70703125 13.5234375 99.70703125 17 100 C17.66 100.99 18.32 101.98 19 103 C21.7515767 103.28628303 24.27720631 103.37827044 27.02978516 103.34057617 C28.27380348 103.34123329 28.27380348 103.34123329 29.54295349 103.34190369 C32.29189368 103.33980898 35.0402285 103.31644613 37.7890625 103.29296875 C39.69192166 103.28737521 41.59478513 103.28310397 43.49765015 103.28010559 C48.51192095 103.26863772 53.52593207 103.2391539 58.5401001 103.20599365 C63.65430182 103.17533455 68.76854541 103.16160916 73.8828125 103.14648438 C83.92198925 103.11428601 93.96097305 103.06306628 104 103 C104 101.35 104 99.7 104 98 C77.6 97.67 51.2 97.34 24 97 C24.33 89.08 24.66 81.16 25 73 C74.005 72.505 74.005 72.505 124 72 C124 70.35 124 68.7 124 67 C90.34 66.67 56.68 66.34 22 66 C20.35 62.7 18.7 59.4 17 56 C14.93048929 53.07355548 14.93048929 53.07355548 12.6875 50.75 C11.99011719 49.98171875 11.29273438 49.2134375 10.57421875 48.421875 C7.29231314 45.33419445 3.60485678 42.70364259 0 40 C0 26.8 0 13.6 0 0 Z " fill="#131313" transform="translate(132,104)"/>
<path d="M0 0 C1.04225739 -0.03750366 2.08451477 -0.07500732 3.15835571 -0.11364746 C4.31237885 -0.14932831 5.46640198 -0.18500916 6.65539551 -0.22177124 C8.46806412 -0.28222626 8.46806412 -0.28222626 10.31735229 -0.34390259 C21.55695881 -0.69971517 32.79898239 -0.91860497 44.04280853 -1.08895302 C51.58899591 -1.20607594 59.12808314 -1.36998425 66.67004395 -1.6524353 C122.75099304 -3.70745848 122.75099304 -3.70745848 136.50001526 7.84638977 C145.75293929 16.73377179 149.96962727 27.18328756 150.84875488 39.97988892 C150.88156579 44.96057656 150.58317558 49.88340906 150.25109863 54.85098267 C150.17365214 57.43464306 150.10783824 60.01867914 150.05383301 62.60293579 C149.89872588 68.84213466 149.60293557 75.06139217 149.18859863 81.28848267 C149.58836914 80.66272339 149.98813965 80.03696411 150.40002441 79.39224243 C150.93095703 78.57554077 151.46188965 77.75883911 152.00891113 76.91738892 C152.53243164 76.10600464 153.05595215 75.29462036 153.59533691 74.45864868 C155.79175424 71.46693038 157.64264117 70.35226991 161.18859863 69.28848267 C166.54632044 68.51074886 169.14510702 68.87669972 173.56359863 72.03848267 C176.30145154 74.19822321 178.06702585 75.95775137 179.18859863 79.28848267 C179.69529887 85.23617835 179.09676558 88.46406147 175.93859863 93.66348267 C175.58652344 94.24944214 175.23444824 94.83540161 174.8717041 95.43911743 C170.94799243 101.87564573 166.73507919 108.13783014 162.50891113 114.37832642 C162.0127832 115.1470105 161.51665527 115.91569458 161.00549316 116.70767212 C159.18859863 119.28848267 159.18859863 119.28848267 156.61779785 122.12515259 C146.0382246 134.46649435 147.85989305 149.28450783 148.06359863 164.72598267 C148.10484863 174.15160767 148.14609863 183.57723267 148.18859863 193.28848267 C113.86859863 193.28848267 79.54859863 193.28848267 44.18859863 193.28848267 C44.18859863 191.96848267 44.18859863 190.64848267 44.18859863 189.28848267 C76.52859863 189.28848267 108.86859863 189.28848267 142.18859863 189.28848267 C141.85859863 175.09848267 141.52859863 160.90848267 141.18859863 146.28848267 C139.20859863 149.58848267 137.22859863 152.88848267 135.18859863 156.28848267 C132.25891113 158.40176392 132.25891113 158.40176392 129.31359863 159.60098267 C125.55033676 161.23779173 122.14445119 162.85188197 118.75109863 165.16348267 C115.79972078 167.08187827 113.79252594 167.94374218 110.18859863 167.28848267 C108.57336471 165.67324875 109.01776512 163.96262504 109.00109863 161.72598267 C109.05605484 159.57994288 109.1193051 157.43410737 109.18859863 155.28848267 C109.16281738 154.13992798 109.13703613 152.99137329 109.11047363 151.80801392 C109.54546156 140.14792089 114.93311646 132.37428592 121.51281738 123.00332642 C122.19577881 121.99906616 122.87874023 120.99480591 123.58239746 119.96011353 C125.5965965 117.04293554 127.78204689 114.30229698 130.00378418 111.54067993 C141.8902728 96.06043304 143.2775874 82.20944856 142.68212891 63.43191528 C142.58715737 59.90472634 142.58074607 56.37730402 142.56555176 52.84902954 C142.52363617 45.99296403 142.38830456 39.14173021 142.18859863 32.28848267 C141.10590698 32.29633789 141.10590698 32.29633789 140.00134277 32.30435181 C136.75127015 32.32505624 133.50121135 32.33812185 130.25109863 32.35098267 C128.54663574 32.36355103 128.54663574 32.36355103 126.80773926 32.37637329 C125.72814941 32.37959595 124.64855957 32.3828186 123.53625488 32.38613892 C122.03590698 32.39399414 122.03590698 32.39399414 120.50524902 32.40200806 C118.18859863 32.28848267 118.18859863 32.28848267 117.18859863 31.28848267 C117.18859863 23.03848267 117.18859863 14.78848267 117.18859863 6.28848267 C78.57859863 6.28848267 39.96859863 6.28848267 0.18859863 6.28848267 C0.18859863 18.82848267 0.18859863 31.36848267 0.18859863 44.28848267 C-1.79140137 44.78348267 -1.79140137 44.78348267 -3.81140137 45.28848267 C-5.81140137 43.28848267 -5.81140137 43.28848267 -6.05863953 41.46022034 C-6.05721451 40.72155228 -6.05578949 39.98288422 -6.05432129 39.22183228 C-6.05739792 38.38433945 -6.06047455 37.54684662 -6.06364441 36.68397522 C-6.05645889 35.77873611 -6.04927338 34.87349701 -6.04187012 33.94082642 C-6.0414119 33.0137941 -6.04095367 32.08676178 -6.04048157 31.13163757 C-6.03745791 29.17047853 -6.02956822 27.20932191 -6.01721191 25.24819946 C-5.99895508 22.23484864 -5.99670219 19.22180488 -5.99694824 16.20840454 C-5.99203321 14.30670916 -5.98620496 12.40501587 -5.97937012 10.50332642 C-5.97825729 9.59606308 -5.97714447 8.68879974 -5.97599792 7.75404358 C-5.91827404 0.20506185 -5.91827404 0.20506185 0 0 Z " fill="#F6F6F6" transform="translate(131.8114013671875,97.71151733398438)"/>
<path d="M0 0 C2.56163278 1.04926733 2.56163278 1.04926733 5.28515625 1.4765625 C8.04500538 2.07164033 9.15084292 3.28524898 11.01171875 5.33984375 C13.02648626 7.42960261 15.24300365 9.22533085 17.4609375 11.09765625 C22.60825826 15.69017597 26.51951901 20.77889704 29.5859375 26.97265625 C29.5859375 27.96265625 29.5859375 28.95265625 29.5859375 29.97265625 C30.86158066 29.97043564 32.13722382 29.96821503 33.45152283 29.96592712 C45.44486898 29.94569798 57.43821169 29.93068521 69.43157101 29.92084408 C75.5981867 29.91561467 81.76478868 29.90851598 87.93139648 29.8972168 C93.87709756 29.88638996 99.82278539 29.88037985 105.76849556 29.87777901 C108.04240693 29.87592439 110.31631754 29.87230308 112.59022331 29.86692619 C115.7632087 29.85971847 118.93613867 29.85866519 122.10913086 29.85913086 C123.05931091 29.85553558 124.00949097 29.85194031 124.98846436 29.84823608 C131.47188534 29.85860409 131.47188534 29.85860409 132.5859375 30.97265625 C132.7109375 33.47265625 132.7109375 33.47265625 132.5859375 35.97265625 C130.65369285 37.9049009 127.74983361 37.09284063 125.17884827 37.09707642 C124.25672043 37.09348114 123.33459259 37.08988586 122.38452148 37.08618164 C120.93589722 37.08640068 120.93589722 37.08640068 119.45800781 37.08662415 C116.24932651 37.08592459 113.04070247 37.07813022 109.83203125 37.0703125 C107.61385632 37.06844847 105.39568098 37.0670245 103.17750549 37.06602478 C97.32653679 37.06219841 91.47559273 37.05236711 85.62463379 37.0413208 C79.65926446 37.03110924 73.69389117 37.02652771 67.72851562 37.02148438 C56.01431206 37.01074494 44.30012683 36.9936671 32.5859375 36.97265625 C32.59753906 38.28621094 32.60914063 39.59976563 32.62109375 40.953125 C32.63047578 42.68880066 32.63957554 44.42447786 32.6484375 46.16015625 C32.65681641 47.02447266 32.66519531 47.88878906 32.67382812 48.77929688 C32.68990562 52.97552394 32.66152788 56.88202511 31.5859375 60.97265625 C32.58596298 60.97043564 33.58598846 60.96821503 34.61631775 60.96592712 C44.01962089 60.94569557 53.42291965 60.93068405 62.82623959 60.92084408 C67.66110577 60.91561528 72.49595444 60.90851771 77.33081055 60.8972168 C81.9927087 60.88638778 86.65458996 60.88037939 91.31649971 60.87777901 C93.09918038 60.87592478 94.88186009 60.87230422 96.66453362 60.86692619 C99.1525971 60.85971556 101.64058993 60.85866532 104.12866211 60.85913086 C104.87312592 60.85553558 105.61758972 60.85194031 106.38461304 60.84823608 C111.47188534 60.85860409 111.47188534 60.85860409 112.5859375 61.97265625 C112.7109375 64.47265625 112.7109375 64.47265625 112.5859375 66.97265625 C110.57235318 68.98624057 106.46301659 68.12987182 103.70141602 68.13378906 C102.87542908 68.13875397 102.04944214 68.14371887 101.19842529 68.14883423 C98.45388978 68.16349278 95.70941205 68.17026358 92.96484375 68.17578125 C91.06534319 68.18152918 89.16584266 68.18728695 87.26634216 68.1930542 C83.2790398 68.20357438 79.29175766 68.20941054 75.30444336 68.21289062 C70.18493255 68.21838083 65.06568699 68.24241576 59.9462595 68.27086258 C56.02157296 68.28944721 52.09695088 68.2946923 48.17222404 68.2962265 C46.28429652 68.29926248 44.39637038 68.30732256 42.50848579 68.32041168 C39.87206716 68.33738714 37.23630398 68.33561314 34.59985352 68.32910156 C33.81380234 68.33831635 33.02775116 68.34753113 32.21788025 68.35702515 C30.04664612 68.34014893 30.04664612 68.34014893 26.5859375 67.97265625 C25.9259375 66.98265625 25.2659375 65.99265625 24.5859375 64.97265625 C21.9763165 64.5885435 19.5801301 64.36972428 16.9609375 64.28515625 C16.25453125 64.25099609 15.548125 64.21683594 14.8203125 64.18164062 C13.07608062 64.09914317 11.33103355 64.0342229 9.5859375 63.97265625 C11.4609375 58.09765625 11.4609375 58.09765625 12.5859375 56.97265625 C13.55067047 44.71580298 11.88914509 35.27745096 4.08984375 25.5234375 C2.10122391 23.4728347 0.32561819 22.72606844 -2.4140625 21.97265625 C-3.4246875 21.45703125 -4.4353125 20.94140625 -5.4765625 20.41015625 C-12.46492119 16.99032115 -21.43308921 16.53161995 -28.8984375 18.69140625 C-30.88584128 19.64659256 -32.62108223 20.69195606 -34.4140625 21.97265625 C-35.4659375 22.71515625 -36.5178125 23.45765625 -37.6015625 24.22265625 C-43.05832928 29.55816155 -47.14211725 36.06944201 -47.6796875 43.78515625 C-47.68495479 45.18098936 -47.67951369 46.57689872 -47.6640625 47.97265625 C-47.67179687 48.67132813 -47.67953125 49.37 -47.6875 50.08984375 C-47.67198474 54.20138797 -47.09240594 57.24300415 -45.4140625 60.97265625 C-45.4140625 61.96265625 -45.4140625 62.95265625 -45.4140625 63.97265625 C-52.3440625 63.97265625 -59.2740625 63.97265625 -66.4140625 63.97265625 C-68.5049963 58.74532176 -68.76435903 55.3868731 -68.7265625 49.91015625 C-68.72092285 49.06396729 -68.7152832 48.21777832 -68.70947266 47.34594727 C-68.39177818 30.84942552 -62.05853038 19.45340578 -50.4140625 7.97265625 C-36.87737969 -3.9338024 -16.50194996 -6.44824095 0 0 Z " fill="#E6E7E7" transform="translate(124.4140625,140.02734375)"/>
<path d="M0 0 C4.54750225 2.88838037 8.30707335 5.82330041 10.41796875 10.87109375 C11.36966611 17.31400065 11.60474362 23.08255149 7.73046875 28.55859375 C5.04724488 31.79648922 3.68467941 32.16440949 -0.58203125 33.87109375 C-0.58203125 42.45109375 -0.58203125 51.03109375 -0.58203125 59.87109375 C-5.53203125 59.87109375 -10.48203125 59.87109375 -15.58203125 59.87109375 C-15.58203125 51.29109375 -15.58203125 42.71109375 -15.58203125 33.87109375 C-17.23203125 33.21109375 -18.88203125 32.55109375 -20.58203125 31.87109375 C-22.12890625 30.28515625 -22.12890625 30.28515625 -23.33203125 28.49609375 C-23.739375 27.91085937 -24.14671875 27.325625 -24.56640625 26.72265625 C-26.91668228 22.43792226 -27.19995807 17.66655397 -26.58203125 12.87109375 C-24.6798368 6.96885612 -21.60157636 3.39545521 -16.58203125 -0.12890625 C-11.14054292 -1.94273569 -5.33327175 -2.33179355 0 0 Z " fill="#151515" transform="translate(114.58203125,233.12890625)"/>
<path d="M0 0 C3.3523301 1.25638991 6.30402615 2.68733888 9.3125 4.625 C10.00988281 5.07101563 10.70726562 5.51703125 11.42578125 5.9765625 C12.20501953 6.48316406 12.20501953 6.48316406 13 7 C12.35305038 10.71179174 10.70995931 13.2555079 8.640625 16.375 C7.94275879 17.43380371 7.24489258 18.49260742 6.52587891 19.58349609 C5.7673425 20.72239061 5.0087143 21.86122399 4.25 23 C3.47906075 24.16578566 2.70872035 25.33196755 1.93896484 26.49853516 C0.76807156 28.27265766 -0.40331851 30.04643349 -1.57693481 31.8187561 C-5.75794788 38.1331464 -9.86950176 44.49216564 -13.97558594 50.85546875 C-14.46575195 51.61214844 -14.95591797 52.36882812 -15.4609375 53.1484375 C-15.88165527 53.79989746 -16.30237305 54.45135742 -16.73583984 55.12255859 C-18.09133211 57.13563999 -19.52877055 59.07031681 -21 61 C-26.26170694 59.58832253 -29.72171358 57.25149768 -34 54 C-32.40396939 49.47213055 -30.05964128 45.65176468 -27.5 41.625 C-26.83460205 40.56998291 -26.83460205 40.56998291 -26.15576172 39.49365234 C-22.00641488 32.94644912 -17.71767706 26.49615907 -13.38867188 20.06689453 C-10.70556717 16.07337055 -8.04211121 12.06671455 -5.375 8.0625 C-4.34121789 6.51167072 -3.30737013 4.96088519 -2.2734375 3.41015625 C-1.83435059 2.75152588 -1.39526367 2.09289551 -0.94287109 1.41430664 C-0.63172363 0.94758545 -0.32057617 0.48086426 0 0 Z " fill="#161616" transform="translate(285,185)"/>
<path d="M0 0 C13.7861255 -0.04668163 27.57223879 -0.0818371 41.35842705 -0.10362434 C47.75932423 -0.11407904 54.16016846 -0.12826892 60.56103516 -0.15087891 C66.73367969 -0.17254725 72.90627317 -0.18455591 79.07895279 -0.18975449 C81.4385674 -0.19346107 83.79817909 -0.20069867 86.15777206 -0.21146011 C89.45273718 -0.22589516 92.74748903 -0.2279813 96.04248047 -0.22705078 C97.0264682 -0.23424133 98.01045593 -0.24143188 99.02426147 -0.24884033 C99.91891113 -0.246091 100.81356079 -0.24334167 101.73532104 -0.24050903 C102.51515791 -0.24235262 103.29499477 -0.24419621 104.09846306 -0.24609566 C106 0 106 0 108 2 C107.625 4.625 107.625 4.625 107 7 C93.2138745 7.04668163 79.42776121 7.0818371 65.64157295 7.10362434 C59.24067577 7.11407904 52.83983154 7.12826892 46.43896484 7.15087891 C40.26632031 7.17254725 34.09372683 7.18455591 27.92104721 7.18975449 C25.5614326 7.19346107 23.20182091 7.20069867 20.84222794 7.21146011 C17.54726282 7.22589516 14.25251097 7.2279813 10.95751953 7.22705078 C9.9735318 7.23424133 8.98954407 7.24143188 7.97573853 7.24884033 C7.08108887 7.246091 6.18643921 7.24334167 5.26467896 7.24050903 C4.09492366 7.24327441 4.09492366 7.24327441 2.90153694 7.24609566 C1 7 1 7 -1 5 C-0.625 2.375 -0.625 2.375 0 0 Z " fill="#E5E5E5" transform="translate(150,139)"/>
<path d="M0 0 C13.28187409 -0.02312079 26.56374343 -0.04091374 39.84563351 -0.05181217 C46.0122492 -0.05704158 52.17885118 -0.06414027 58.34545898 -0.07543945 C64.29116006 -0.08626629 70.23684789 -0.0922764 76.18255806 -0.09487724 C78.45646943 -0.09673186 80.73038004 -0.10035317 83.00428581 -0.10573006 C86.1772712 -0.11293778 89.35020117 -0.11399106 92.52319336 -0.11352539 C93.47337341 -0.11712067 94.42355347 -0.12071594 95.40252686 -0.12442017 C101.88594784 -0.11405216 101.88594784 -0.11405216 103 1 C103.04063832 2.66617115 103.042721 4.33388095 103 6 C91.89840326 6.02328209 80.79681243 6.04099536 69.69519615 6.05181217 C64.53897609 6.05700653 59.38277287 6.06404077 54.2265625 6.07543945 C49.24041201 6.08639184 44.2542776 6.09230272 39.268116 6.09487724 C37.37616345 6.09670942 35.48421168 6.10028662 33.59226608 6.10573006 C23.0074465 6.13494288 12.54937362 5.96848666 2 5 C1.34 3.35 0.68 1.7 0 0 Z " fill="#F6F6F6" transform="translate(154,170)"/>
<path d="M0 0 C6.125284 6.125284 6.125284 6.125284 6.12939453 10.3203125 C6.13254669 11.23796387 6.13569885 12.15561523 6.13894653 13.10107422 C6.1369223 14.09896973 6.13489807 15.09686523 6.1328125 16.125 C6.13376923 17.14223145 6.13472595 18.15946289 6.13571167 19.20751953 C6.13639361 21.36295636 6.13453835 23.51839522 6.13037109 25.67382812 C6.12502305 28.98572371 6.13031563 32.29748367 6.13671875 35.609375 C6.13605797 37.69791697 6.13477681 39.78645885 6.1328125 41.875 C6.13483673 42.87289551 6.13686096 43.87079102 6.13894653 44.89892578 C6.13579437 45.81657715 6.13264221 46.73422852 6.12939453 47.6796875 C6.12859894 48.49163574 6.12780334 49.30358398 6.12698364 50.14013672 C6 52 6 52 5 53 C3.35 53 1.7 53 0 53 C0 35.51 0 18.02 0 0 Z " fill="#FCFCFC" transform="translate(126,163)"/>
<path d="M0 0 C16.5 0 33 0 50 0 C50.495 2.475 50.495 2.475 51 5 C34.17 5 17.34 5 0 5 C0 3.35 0 1.7 0 0 Z " fill="#FBFBFB" transform="translate(176,249)"/>
<path d="M0 0 C5.55441273 5.55441273 6.22647455 10.94297394 6.4375 18.5625 C6.33495773 24.60646185 5.71334654 28.24227474 2 33 C6.95 33 11.9 33 17 33 C17 33.33 17 33.66 17 34 C12.05 34.33 7.1 34.66 2 35 C1.67 37.97 1.34 40.94 1 44 C0.67 44 0.34 44 0 44 C0 29.48 0 14.96 0 0 Z " fill="#3F3F3F" transform="translate(132,171)"/>
<path d="M0 0 C3.34999505 0.09152992 3.97084041 0.30966034 6.6875 2.5625 C8.44815726 6.08381452 8.20242543 7.70795042 7.125 11.4375 C6.795 12.0975 6.465 12.7575 6.125 13.4375 C0.86329306 12.02582253 -2.59671358 9.68899768 -6.875 6.4375 C-5.93260317 1.72551586 -5.03349779 0.56829814 0 0 Z " fill="#242424" transform="translate(296.875,173.5625)"/>
<path d="M0 0 C5.27002208 4.39168507 10.35302051 8.9426379 15 14 C15 14.33 15 14.66 15 15 C10.05 15 5.1 15 0 15 C0 10.05 0 5.1 0 0 Z " fill="#202020" transform="translate(255,108)"/>
<path d="M0 0 C2.64 1.65 5.28 3.3 8 5 C5.22719294 8.08089673 2.93673644 9.68775452 -1 11 C-1.07622858 7.03611362 -0.9681648 3.8726592 0 0 Z " fill="#1F1F1F" transform="translate(249,245)"/>
<path d="M0 0 C0.66 0.33 1.32 0.66 2 1 C-2.95 5.95 -7.9 10.9 -13 16 C-13 11.93645091 -11.47015238 10.94829419 -8.75 8 C-7.96109375 7.13375 -7.1721875 6.2675 -6.359375 5.375 C-4.3351828 3.33740256 -2.34982916 1.63841299 0 0 Z " fill="#C2C4C3" transform="translate(78,145)"/>
<path d="M0 0 C0.66 0.33 1.32 0.66 2 1 C-1.96 4.96 -5.92 8.92 -10 13 C-10 8.41771462 -7.08388033 6.1816619 -4 3 C-1.625 1.0625 -1.625 1.0625 0 0 Z " fill="#414141" transform="translate(91,160)"/>
<path d="M0 0 C-1.49097658 3.7952131 -3.75700849 5.61042731 -7 8 C-4.18918919 0 -4.18918919 0 0 0 Z " fill="#424343" transform="translate(97,235)"/>
</svg>
